name C:/MyDriveSym/Projects/mobilecap/Data\Session20210823_0001\mocap\ForceDataProcessed\DJ3_forces.mot
datacolumns 28
datarows 16
range 1.07950000 1.08700000
endheader 
time	R_ground_force_vx	R_ground_force_vy	R_ground_force_vz	R_ground_force_px	R_ground_force_py	R_ground_force_pz	R_ground_torque_x	R_ground_torque_y	R_ground_torque_z	L_ground_force_vx	L_ground_force_vy	L_ground_force_vz	L_ground_force_px	L_ground_force_py	L_ground_force_pz	L_ground_torque_x	L_ground_torque_y	L_ground_torque_z	3_ground_force_vx	3_ground_force_vy	3_ground_force_vz	3_ground_force_px	3_ground_force_py	3_ground_force_pz	3_ground_torque_x	3_ground_torque_y	3_ground_torque_z	
          1.07950000	       -152.29965800	       1085.43320500	       -121.96085000	         -0.22063500	          0.00600000	         -0.34707300	          0.00000000	         -4.76277500	          0.00000000	        -51.43456500	       1130.58792400	        131.77720000	         -0.17304800	          0.00600000	         -0.82866700	          0.00000000	          5.12851800	          0.00000000	          0.00000000	          0.00000000	          0.00000000	          0.00000000	          0.00000000	          0.00000000	          0.00000000	          0.00000000	          0.00000000	
          1.08000000	       -160.79143400	       1042.07575500	       -119.98526100	         -0.21862100	          0.00600000	         -0.34683400	          0.00000000	         -4.67061000	          0.00000000	        -46.52765500	       1156.01942500	        132.51600500	         -0.17474100	          0.00600000	         -0.82829200	          0.00000000	          5.24142600	          0.00000000	          0.00000000	          0.00000000	          0.00000000	          0.00000000	          0.00000000	          0.00000000	          0.00000000	          0.00000000	          0.00000000	
          1.08050000	       -169.09885800	        999.61651100	       -118.11173300	         -0.21648100	          0.00600000	         -0.34657200	          0.00000000	         -4.57461000	          0.00000000	        -41.97686500	       1180.30912700	        133.27589300	         -0.17631200	          0.00600000	         -0.82794500	          0.00000000	          5.34422000	          0.00000000	          0.00000000	          0.00000000	          0.00000000	          0.00000000	          0.00000000	          0.00000000	          0.00000000	          0.00000000	          0.00000000	
          1.08100000	       -177.18221900	        958.17882100	       -116.34373700	         -0.21421300	          0.00600000	         -0.34628900	          0.00000000	         -4.47496000	          0.00000000	        -37.83495600	       1203.27893100	        134.03366600	         -0.17776200	          0.00600000	         -0.82762400	          0.00000000	          5.43783200	          0.00000000	          0.00000000	          0.00000000	          0.00000000	          0.00000000	          0.00000000	          0.00000000	          0.00000000	          0.00000000	          0.00000000	
          1.08150000	       -185.00450200	        917.87059100	       -114.68602100	         -0.21181500	          0.00600000	         -0.34598200	          0.00000000	         -4.37189200	          0.00000000	        -34.15173300	       1224.75422000	        134.76156200	         -0.17909200	          0.00600000	         -0.82732900	          0.00000000	          5.52268800	          0.00000000	          0.00000000	          0.00000000	          0.00000000	          0.00000000	          0.00000000	          0.00000000	          0.00000000	          0.00000000	          0.00000000	
          1.08200000	       -192.53189500	        878.78602100	       -113.14377600	         -0.20928700	          0.00600000	         -0.34564900	          0.00000000	         -4.26569400	          0.00000000	        -30.97312500	       1244.56544800	        135.43116500	         -0.18030000	          0.00600000	         -0.82705600	          0.00000000	          5.59866400	          0.00000000	          0.00000000	          0.00000000	          0.00000000	          0.00000000	          0.00000000	          0.00000000	          0.00000000	          0.00000000	          0.00000000	
          1.08250000	       -199.73431000	        841.00689900	       -111.72104300	         -0.20662800	          0.00600000	         -0.34529100	          0.00000000	         -4.15676900	          0.00000000	        -28.34087500	       1262.55090700	        136.01706600	         -0.18138800	          0.00600000	         -0.82680600	          0.00000000	          5.66519300	          0.00000000	          0.00000000	          0.00000000	          0.00000000	          0.00000000	          0.00000000	          0.00000000	          0.00000000	          0.00000000	          0.00000000	
          1.08300000	       -206.58603100	        804.60319200	       -110.41896900	         -0.20383900	          0.00600000	         -0.34490600	          0.00000000	         -4.04558900	          0.00000000	        -26.29265300	       1278.56002500	        136.49908600	         -0.18235500	          0.00600000	         -0.82657500	          0.00000000	          5.72149000	          0.00000000	          0.00000000	          0.00000000	          0.00000000	          0.00000000	          0.00000000	          0.00000000	          0.00000000	          0.00000000	          0.00000000	
          1.08350000	       -213.06688300	        769.63299600	       -109.23505900	         -0.20092400	          0.00600000	         -0.34449300	          0.00000000	         -3.93252200	          0.00000000	        -24.86255300	       1292.45721300	        136.86333100	         -0.18320300	          0.00600000	         -0.82636200	          0.00000000	          5.76689600	          0.00000000	          0.00000000	          0.00000000	          0.00000000	          0.00000000	          0.00000000	          0.00000000	          0.00000000	          0.00000000	          0.00000000	
          1.08400000	       -219.16356400	        736.14228600	       -108.16371200	         -0.19788400	          0.00600000	         -0.34405200	          0.00000000	         -3.81762500	          0.00000000	        -24.08170200	       1304.12635200	        137.10280500	         -0.18393300	          0.00600000	         -0.82616600	          0.00000000	          5.80125100	          0.00000000	          0.00000000	          0.00000000	          0.00000000	          0.00000000	          0.00000000	          0.00000000	          0.00000000	          0.00000000	          0.00000000	
          1.08450000	       -224.87009500	        704.16503300	       -107.19736400	         -0.19472500	          0.00600000	         -0.34358500	          0.00000000	         -3.70064400	          0.00000000	        -23.97823100	       1313.47538300	        137.21745000	         -0.18454600	          0.00600000	         -0.82598600	          0.00000000	          5.82516200	          0.00000000	          0.00000000	          0.00000000	          0.00000000	          0.00000000	          0.00000000	          0.00000000	          0.00000000	          0.00000000	          0.00000000	
          1.08500000	       -230.18693200	        673.72383300	       -106.32762700	         -0.19145400	          0.00600000	         -0.34309200	          0.00000000	         -3.58121700	          0.00000000	        -24.57614900	       1320.44022000	        137.21316700	         -0.18504600	          0.00600000	         -0.82582000	          0.00000000	          5.84002400	          0.00000000	          0.00000000	          0.00000000	          0.00000000	          0.00000000	          0.00000000	          0.00000000	          0.00000000	          0.00000000	          0.00000000	
          1.08550000	       -235.11919700	        644.83075800	       -105.54629500	         -0.18807700	          0.00600000	         -0.34257500	          0.00000000	         -3.45913700	          0.00000000	        -25.89355800	       1324.98719500	        137.09951300	         -0.18543500	          0.00600000	         -0.82566700	          0.00000000	          5.84771200	          0.00000000	          0.00000000	          0.00000000	          0.00000000	          0.00000000	          0.00000000	          0.00000000	          0.00000000	          0.00000000	          0.00000000	
          1.08600000	       -239.67489800	        617.48810700	       -104.84624900	         -0.18460600	          0.00600000	         -0.34203700	          0.00000000	         -3.33446200	          0.00000000	        -27.94102200	       1327.11378200	        136.88647700	         -0.18571700	          0.00600000	         -0.82552600	          0.00000000	          5.85002400	          0.00000000	          0.00000000	          0.00000000	          0.00000000	          0.00000000	          0.00000000	          0.00000000	          0.00000000	          0.00000000	          0.00000000	
          1.08650000	       -243.86379800	        591.68892400	       -104.22224900	         -0.18105300	          0.00600000	         -0.34147700	          0.00000000	         -3.20744600	          0.00000000	        -30.72075900	       1326.84802800	        136.58171300	         -0.18589300	          0.00600000	         -0.82539800	          0.00000000	          5.84818300	          0.00000000	          0.00000000	          0.00000000	          0.00000000	          0.00000000	          0.00000000	          0.00000000	          0.00000000	          0.00000000	          0.00000000	
          1.08700000	       -247.69694100	        567.41752500	       -103.67121200	         -0.17743100	          0.00600000	         -0.34089900	          0.00000000	         -3.07840400	          0.00000000	        -34.22688000	       1324.24702500	        136.18916900	         -0.18596600	          0.00600000	         -0.82528100	          0.00000000	          5.84259400	          0.00000000	          0.00000000	          0.00000000	          0.00000000	          0.00000000	          0.00000000	          0.00000000	          0.00000000	          0.00000000	          0.00000000	
